<svg xmlns="http://www.w3.org/2000/svg" xmlns:xlink="http://www.w3.org/1999/xlink" viewBox="0,0,256,256" width="48px" height="48px" fill-rule="nonzero"><g fill="none" fill-rule="nonzero" stroke="none" stroke-width="1" stroke-linecap="butt" stroke-linejoin="miter" stroke-miterlimit="10" stroke-dasharray="" stroke-dashoffset="0" font-family="none" font-weight="none" font-size="none" text-anchor="none" style="mix-blend-mode: normal"><g transform="scale(5.33333,5.33333)"><path d="M24,4c-11.046,0 -20,8.954 -20,20c0,11.046 8.954,20 20,20c11.046,0 20,-8.954 20,-20c0,-11.046 -8.954,-20 -20,-20z" fill="#20c997"></path><path d="M30,35v-9c0,-1.103 -0.897,-2 -2,-2c-1.103,0 -2,0.897 -2,2v9h-6v-17h6v1.027c1.04,-0.668 2.252,-1.027 3.5,-1.027c3.584,0 6.5,2.916 6.5,6.5v10.5zM13,35v-17h2.966c-1.719,0 -2.966,-1.262 -2.966,-3.001c0,-1.738 1.267,-2.999 3.011,-2.999c1.696,0 2.953,1.252 2.989,2.979c0,1.754 -1.267,3.021 -3.012,3.021h3.012v17z" fill="#66735a" opacity="0.05"></path><path d="M30.5,34.5v-8.5c0,-1.378 -1.121,-2.5 -2.5,-2.5c-1.379,0 -2.5,1.122 -2.5,2.5v8.5h-5v-16h5v1.534c1.09,-0.977 2.512,-1.534 4,-1.534c3.309,0 6,2.691 6,6v10zM13.5,34.5v-16h5v16zM15.966,17.5c-1.429,0 -2.466,-1.052 -2.466,-2.501c0,-1.448 1.056,-2.499 2.511,-2.499c1.436,0 2.459,1.023 2.489,2.489c0,1.459 -1.057,2.511 -2.512,2.511z" fill="#66735a" opacity="0.07"></path><path d="M14,19h4v15h-4zM15.988,17h-0.022c-1.194,0 -1.966,-0.89 -1.966,-2.001c0,-1.135 0.796,-1.999 2.011,-1.999c1.217,0 1.966,0.864 1.989,1.999c0,1.111 -0.772,2.001 -2.012,2.001zM35,24.5c0,-3.038 -2.462,-5.5 -5.5,-5.5c-1.862,0 -3.505,0.928 -4.5,2.344v-2.344h-4v15h4v-8c0,-1.657 1.343,-3 3,-3c1.657,0 3,1.343 3,3v8h4c0,0 0,-9.079 0,-9.5z" fill="#ffffff"></path></g></g></svg>